<?xml version="1.0" encoding="utf-8"?>
<!-- Generator: Adobe Illustrator 25.0.1, SVG Export Plug-In . SVG Version: 6.00 Build 0)  -->
<svg version="1.1" id="Layer_1" xmlns="http://www.w3.org/2000/svg" xmlns:xlink="http://www.w3.org/1999/xlink" x="0px" y="0px"
	 viewBox="0 0 2082.8 2847.5" style="enable-background:new 0 0 2082.8 2847.5;" xml:space="preserve">
<style type="text/css">
	.st0{clip-path:url(#SVGID_2_);}
	.st1{fill:url(#SVGID_3_);}
</style>
<g>
	<defs>
		<path id="SVGID_1_" d="M876.4,1649c10.9,40.7,9.6,90-13.8,126.3l-2.1,3.2l-3.3-1.7c-38.5-19.7-64.3-61.8-75.1-102.5
			s-9.7-90,13.6-126.3l2.1-3.2l3.4,1.8c38.5,19.7,64.2,61.8,75.1,102.5 M1214,1649c10.9-40.7,36.6-82.8,75.1-102.5l3.4-1.8l2,3.2
			c23.5,36.2,24.8,85.6,13.8,126.3c-10.9,40.7-36.6,82.8-75.1,102.5l-3.4,1.7l-2-3.2c-23.3-36.3-24.5-85.6-13.6-126.3H1214z
			 M704.9,1168.3c-38.5-19.7-64.2-61.8-75.1-102.5c-10.9-40.7-9.6-90,13.8-126.3l2-3.2l3.4,1.7c38.5,19.7,64.2,61.8,75.1,102.5
			c10.9,40.7,9.7,90-13.6,126.3l-2.1,3.2L704.9,1168.3z M1204.9,1209c10.9-40.7,36.7-82.8,75.1-102.5l3.4-1.7l2.1,3.2
			c23.5,36.2,24.7,85.6,13.8,126.3c-10.9,40.7-36.6,82.8-75.1,102.5l-3.3,1.8l-2.1-3.2c-23.3-36.4-24.4-85.7-13.6-126.4L1204.9,1209
			z M943.5,857.6c10.9,40.7,9.7,90-13.8,126.4l-2,3.2l-3.4-1.7c-38.5-19.7-64.2-61.8-75.1-102.5c-10.9-40.7-9.6-90,13.8-126.3l2-3.2
			l3.4,1.8c38.7,19.6,64.5,61.6,75.4,102.3L943.5,857.6z M1088.1,857.6c10.9-40.7,36.7-82.7,75.1-102.4l3.4-1.8l2.1,3.2
			c23.5,36.2,24.8,85.6,13.8,126.3s-36.6,82.8-75.1,102.5l-3.4,1.7l-2.1-3.2c-23.2-36.4-24.5-85.7-13.6-126.5L1088.1,857.6z
			 M1350.3,1040.6c10.9-40.7,36.6-82.8,75.1-102.5l3.4-1.7l2,3.2c23.5,36.2,24.8,85.6,13.8,126.3c-10.9,40.7-36.7,82.7-75.1,102.5
			l-3.4,1.8l-2.1-3.2c-23.3-36.4-24.5-85.7-13.6-126.4L1350.3,1040.6z M1632.6,1230.4c23.5,36.2,24.8,85.6,13.8,126.3
			c-10.9,40.7-36.7,82.8-75.1,102.5l-3.4,1.8l-2.1-3.2c-23.4-36.2-24.7-85.6-13.8-126.3c10.9-40.7,36.7-82.8,75.2-102.5l3.4-1.8
			L1632.6,1230.4z M1502.7,1687.5c30.3-33.5,79.6-48.1,123.6-48.1s93.3,14.6,123.5,48.1l2.6,2.9l-2.6,2.8
			c-30.2,33.4-79.6,48-123.5,48c-43.9,0-93.3-14.6-123.6-48l-2.5-2.8L1502.7,1687.5z M1439,827.6l-327.5,327.5l-51.1-48.3
			l279.2-279.2L1439,827.6z M849.7,1339.6c-39.5-20.3-65.9-63.4-76.9-105.3s-9.9-92.4,14.2-129.7l2.1-3.2l3.4,1.7
			c39.5,20.3,65.9,63.4,76.9,105.2s9.9,92.5-14.2,129.7l-2.1,3.2L849.7,1339.6z M487.7,1777.5c-43.2,0-91.6-14.3-121.3-47.2
			l-2.5-2.8l2.5-2.9c29.7-32.8,78.1-47.2,121.3-47.2s91.6,14.3,121.3,47.2l2.5,2.9l-2.5,2.8c-29.9,33-78.4,47.3-121.5,47.3
			L487.7,1777.5z M447.4,1352.4c-11.2-41.8-10-92.4,14.2-129.7l2.1-3.2l3.4,1.7c39.5,20.3,65.9,63.4,76.9,105.3s9.9,92.4-14.2,129.7
			l-2.1,3.2l-3.4-1.7c-39.5-20.1-65.9-63.3-77.1-105L447.4,1352.4z M984.3,2238.5h115v-912.2l-115.2-115.2L984.3,2238.5z
			 M302.7,2238.5h611v-248.2L528.4,1605l-203.2-54.3l69.8-40.3l52.7,14.1L266.2,1343h99.6l277.4,277.4l-52.1-194.6l84.5,84.5
			l52.1,194.6l186.1,186.1v-348.2l-167.5-167.5l-203.2-54.3l69.8-40.3l52.7,14.1L460,1089.2h99.6l354.1,354.5v-302.6L643.9,871.4
			h99.6l426.1,426.1v146.2l354.2-354.2h99.6l-229,229l52.7-14.2l69.8,40.3l-203.2,54.3l-144,144v348.2l208.2-208.2l52.1-194.6
			l84.5-84.5l-52.1,194.6l255.3-255.3h99.6L1691,1469.5l52.7-14.1l69.9,40.3l-203.2,54.3l-440.5,440.5v248.2h611.3
			c109.3-152.9,168.1-336.3,168-524.3v-581.6c0-498.9-408.2-907.2-907.1-907.2l0,0c-498.9,0-907.1,408.2-907.1,907.2v581.6
			c-0.1,188,58.6,371.4,167.9,524.3L302.7,2238.5z M1041.4,155.4L1041.4,155.4c537.6,0,977.6,439.9,977.6,977.6v581.6
			c0,537.6-439.8,977.6-977.6,977.6S63.8,2252.3,63.8,1714.6V1133c0.3-537.7,440.2-977.6,977.8-977.6L1041.4,155.4z"/>
	</defs>
	<clipPath id="SVGID_2_">
		<use xlink:href="#SVGID_1_"  style="overflow:visible;"/>
	</clipPath>
	<g class="st0">
		
			<linearGradient id="SVGID_3_" gradientUnits="userSpaceOnUse" x1="428.4417" y1="867.3674" x2="1304.3011" y2="2594.3306" gradientTransform="matrix(1 0 0 -1 0 3500)">
			<stop  offset="0" style="stop-color:#8D7961"/>
			<stop  offset="1" style="stop-color:#D9A575"/>
		</linearGradient>
		<rect x="64.1" y="155.4" class="st1" width="1954.9" height="2536.6"/>
	</g>
</g>
</svg>
